<?xml version="1.0" encoding="UTF-8"?>
<!--Generator: Apple Native CoreSVG 175-->
<!DOCTYPE svg
PUBLIC "-//W3C//DTD SVG 1.1//EN"
       "http://www.w3.org/Graphics/SVG/1.1/DTD/svg11.dtd">
<svg version="1.1" xmlns="http://www.w3.org/2000/svg" xmlns:xlink="http://www.w3.org/1999/xlink" width="3300" height="2200">
 <!--glyph: "uni1004B6.medium", point size: 100.0, font version: "17.3d3e1", template writer version: "65.1"-->
 <g id="Notes">
  <rect height="2200" id="artboard" style="fill:white;opacity:1" width="3300" x="0" y="0"/>
  <line style="fill:none;stroke:black;opacity:1;stroke-width:0.5;" x1="263" x2="3036" y1="292" y2="292"/>
  <text style="stroke:none;fill:black;font-family:sans-serif;font-size:13;font-weight:bold;" transform="matrix(1 0 0 1 263 322)">Weight/Scale Variations</text>
  <text style="stroke:none;fill:black;font-family:sans-serif;font-size:13;text-anchor:middle;" transform="matrix(1 0 0 1 559.711 322)">Ultralight</text>
  <text style="stroke:none;fill:black;font-family:sans-serif;font-size:13;text-anchor:middle;" transform="matrix(1 0 0 1 856.422 322)">Thin</text>
  <text style="stroke:none;fill:black;font-family:sans-serif;font-size:13;text-anchor:middle;" transform="matrix(1 0 0 1 1153.13 322)">Light</text>
  <text style="stroke:none;fill:black;font-family:sans-serif;font-size:13;text-anchor:middle;" transform="matrix(1 0 0 1 1449.84 322)">Regular</text>
  <text style="stroke:none;fill:black;font-family:sans-serif;font-size:13;text-anchor:middle;" transform="matrix(1 0 0 1 1746.56 322)">Medium</text>
  <text style="stroke:none;fill:black;font-family:sans-serif;font-size:13;text-anchor:middle;" transform="matrix(1 0 0 1 2043.27 322)">Semibold</text>
  <text style="stroke:none;fill:black;font-family:sans-serif;font-size:13;text-anchor:middle;" transform="matrix(1 0 0 1 2339.98 322)">Bold</text>
  <text style="stroke:none;fill:black;font-family:sans-serif;font-size:13;text-anchor:middle;" transform="matrix(1 0 0 1 2636.69 322)">Heavy</text>
  <text style="stroke:none;fill:black;font-family:sans-serif;font-size:13;text-anchor:middle;" transform="matrix(1 0 0 1 2933.4 322)">Black</text>
  <line style="fill:none;stroke:black;opacity:1;stroke-width:0.5;" x1="263" x2="3036" y1="1903" y2="1903"/>
  <g transform="matrix(1 0 0 1 263 1933)">
   <path d="M9.24805 0.830078Q10.8691 0.830078 12.2949 0.214844Q13.7207-0.400391 14.8096-1.49414Q15.8984-2.58789 16.5186-4.01367Q17.1387-5.43945 17.1387-7.05078Q17.1387-8.66211 16.5186-10.0879Q15.8984-11.5137 14.8047-12.6074Q13.7109-13.7012 12.2852-14.3164Q10.8594-14.9316 9.23828-14.9316Q7.62695-14.9316 6.20117-14.3164Q4.77539-13.7012 3.69141-12.6074Q2.60742-11.5137 1.9873-10.0879Q1.36719-8.66211 1.36719-7.05078Q1.36719-5.43945 1.9873-4.01367Q2.60742-2.58789 3.69629-1.49414Q4.78516-0.400391 6.21094 0.214844Q7.63672 0.830078 9.24805 0.830078ZM9.24805-0.654297Q7.91992-0.654297 6.7627-1.14746Q5.60547-1.64062 4.73145-2.51953Q3.85742-3.39844 3.36426-4.56055Q2.87109-5.72266 2.87109-7.05078Q2.87109-8.37891 3.35938-9.54102Q3.84766-10.7031 4.72168-11.582Q5.5957-12.4609 6.75293-12.9541Q7.91016-13.4473 9.23828-13.4473Q10.5762-13.4473 11.7334-12.9541Q12.8906-12.4609 13.7695-11.582Q14.6484-10.7031 15.1465-9.54102Q15.6445-8.37891 15.6445-7.05078Q15.6445-5.72266 15.1514-4.56055Q14.6582-3.39844 13.7842-2.51953Q12.9102-1.64062 11.748-1.14746Q10.5859-0.654297 9.24805-0.654297ZM5.6543-7.05078Q5.6543-6.72852 5.85938-6.52832Q6.06445-6.32812 6.40625-6.32812L8.51562-6.32812L8.51562-4.20898Q8.51562-3.88672 8.71094-3.67676Q8.90625-3.4668 9.23828-3.4668Q9.56055-3.4668 9.77051-3.67676Q9.98047-3.88672 9.98047-4.20898L9.98047-6.32812L12.0898-6.32812Q12.4219-6.32812 12.627-6.52832Q12.832-6.72852 12.832-7.05078Q12.832-7.38281 12.627-7.58789Q12.4219-7.79297 12.0898-7.79297L9.98047-7.79297L9.98047-9.90234Q9.98047-10.2344 9.77051-10.4443Q9.56055-10.6543 9.23828-10.6543Q8.90625-10.6543 8.71094-10.4443Q8.51562-10.2344 8.51562-9.90234L8.51562-7.79297L6.40625-7.79297Q6.06445-7.79297 5.85938-7.58789Q5.6543-7.38281 5.6543-7.05078Z"/>
  </g>
  <g transform="matrix(1 0 0 1 281.867 1933)">
   <path d="M11.709 2.91016Q13.75 2.91016 15.5518 2.12891Q17.3535 1.34766 18.7305-0.0292969Q20.1074-1.40625 20.8887-3.20801Q21.6699-5.00977 21.6699-7.05078Q21.6699-9.0918 20.8887-10.8936Q20.1074-12.6953 18.7305-14.0723Q17.3535-15.4492 15.5469-16.2305Q13.7402-17.0117 11.6992-17.0117Q9.6582-17.0117 7.85645-16.2305Q6.05469-15.4492 4.68262-14.0723Q3.31055-12.6953 2.5293-10.8936Q1.74805-9.0918 1.74805-7.05078Q1.74805-5.00977 2.5293-3.20801Q3.31055-1.40625 4.6875-0.0292969Q6.06445 1.34766 7.86621 2.12891Q9.66797 2.91016 11.709 2.91016ZM11.709 1.25Q9.98047 1.25 8.47656 0.605469Q6.97266-0.0390625 5.83496-1.17676Q4.69727-2.31445 4.05762-3.81836Q3.41797-5.32227 3.41797-7.05078Q3.41797-8.7793 4.05762-10.2832Q4.69727-11.7871 5.83008-12.9297Q6.96289-14.0723 8.4668-14.7119Q9.9707-15.3516 11.6992-15.3516Q13.4277-15.3516 14.9316-14.7119Q16.4355-14.0723 17.5781-12.9297Q18.7207-11.7871 19.3652-10.2832Q20.0098-8.7793 20.0098-7.05078Q20.0098-5.32227 19.3701-3.81836Q18.7305-2.31445 17.5928-1.17676Q16.4551-0.0390625 14.9463 0.605469Q13.4375 1.25 11.709 1.25ZM7.17773-7.05078Q7.17773-6.69922 7.41211-6.47461Q7.64648-6.25 8.01758-6.25L10.8887-6.25L10.8887-3.36914Q10.8887-2.99805 11.1133-2.76855Q11.3379-2.53906 11.6895-2.53906Q12.0605-2.53906 12.29-2.76855Q12.5195-2.99805 12.5195-3.36914L12.5195-6.25L15.4004-6.25Q15.7715-6.25 16.001-6.47461Q16.2305-6.69922 16.2305-7.05078Q16.2305-7.42188 16.001-7.65137Q15.7715-7.88086 15.4004-7.88086L12.5195-7.88086L12.5195-10.752Q12.5195-11.1328 12.29-11.3623Q12.0605-11.5918 11.6895-11.5918Q11.3379-11.5918 11.1133-11.3574Q10.8887-11.123 10.8887-10.752L10.8887-7.88086L8.01758-7.88086Q7.63672-7.88086 7.40723-7.65137Q7.17773-7.42188 7.17773-7.05078Z"/>
  </g>
  <g transform="matrix(1 0 0 1 305.646 1933)">
   <path d="M14.9707 5.66406Q17.0605 5.66406 18.96 5.01465Q20.8594 4.36523 22.4512 3.19336Q24.043 2.02148 25.2197 0.429688Q26.3965-1.16211 27.0459-3.06641Q27.6953-4.9707 27.6953-7.05078Q27.6953-9.14062 27.0459-11.04Q26.3965-12.9395 25.2197-14.5312Q24.043-16.123 22.4512-17.2998Q20.8594-18.4766 18.9551-19.126Q17.0508-19.7754 14.9609-19.7754Q12.8711-19.7754 10.9717-19.126Q9.07227-18.4766 7.48535-17.2998Q5.89844-16.123 4.72168-14.5312Q3.54492-12.9395 2.90039-11.04Q2.25586-9.14062 2.25586-7.05078Q2.25586-4.9707 2.90527-3.06641Q3.55469-1.16211 4.72656 0.429688Q5.89844 2.02148 7.49023 3.19336Q9.08203 4.36523 10.9814 5.01465Q12.8809 5.66406 14.9707 5.66406ZM14.9707 3.84766Q13.1641 3.84766 11.5283 3.2959Q9.89258 2.74414 8.53516 1.74805Q7.17773 0.751953 6.17676-0.610352Q5.17578-1.97266 4.62891-3.6084Q4.08203-5.24414 4.08203-7.05078Q4.08203-8.86719 4.62891-10.5029Q5.17578-12.1387 6.17188-13.501Q7.16797-14.8633 8.52539-15.8594Q9.88281-16.8555 11.5186-17.4023Q13.1543-17.9492 14.9609-17.9492Q16.7773-17.9492 18.4131-17.4023Q20.0488-16.8555 21.4111-15.8594Q22.7734-14.8633 23.7695-13.501Q24.7656-12.1387 25.3174-10.5029Q25.8691-8.86719 25.8691-7.05078Q25.8789-5.24414 25.332-3.6084Q24.7852-1.97266 23.7842-0.610352Q22.7832 0.751953 21.4209 1.74805Q20.0586 2.74414 18.4229 3.2959Q16.7871 3.84766 14.9707 3.84766ZM9.19922-7.05078Q9.19922-6.66992 9.45801-6.4209Q9.7168-6.17188 10.1172-6.17188L14.0625-6.17188L14.0625-2.2168Q14.0625-1.81641 14.3115-1.55762Q14.5605-1.29883 14.9512-1.29883Q15.3516-1.29883 15.6104-1.55273Q15.8691-1.80664 15.8691-2.2168L15.8691-6.17188L19.8242-6.17188Q20.2246-6.17188 20.4785-6.4209Q20.7324-6.66992 20.7324-7.05078Q20.7324-7.46094 20.4785-7.71484Q20.2246-7.96875 19.8242-7.96875L15.8691-7.96875L15.8691-11.9141Q15.8691-12.3242 15.6104-12.583Q15.3516-12.8418 14.9512-12.8418Q14.5605-12.8418 14.3115-12.583Q14.0625-12.3242 14.0625-11.9141L14.0625-7.96875L10.1172-7.96875Q9.70703-7.96875 9.45312-7.71484Q9.19922-7.46094 9.19922-7.05078Z"/>
  </g>
  <text style="stroke:none;fill:black;font-family:sans-serif;font-size:13;font-weight:bold;" transform="matrix(1 0 0 1 263 1953)">Design Variations</text>
  <text style="stroke:none;fill:black;font-family:sans-serif;font-size:13;" transform="matrix(1 0 0 1 263 1971)">Symbols are supported in up to nine weights and three scales.</text>
  <text style="stroke:none;fill:black;font-family:sans-serif;font-size:13;" transform="matrix(1 0 0 1 263 1989)">For optimal layout with text and other symbols, vertically align</text>
  <text style="stroke:none;fill:black;font-family:sans-serif;font-size:13;" transform="matrix(1 0 0 1 263 2007)">symbols with the adjacent text.</text>
  <line style="fill:none;stroke:#00AEEF;stroke-width:0.5;opacity:1.0;" x1="776" x2="776" y1="1919" y2="1933"/>
  <g transform="matrix(1 0 0 1 776 1933)">
   <path d="M3.31055 0.15625Q3.70117 0.15625 3.91602-0.00976562Q4.13086-0.175781 4.26758-0.585938L5.52734-4.0332L11.2891-4.0332L12.5488-0.585938Q12.6855-0.175781 12.9004-0.00976562Q13.1152 0.15625 13.4961 0.15625Q13.8867 0.15625 14.1162-0.0585938Q14.3457-0.273438 14.3457-0.644531Q14.3457-0.869141 14.2383-1.17188L9.6582-13.3691Q9.48242-13.8184 9.17969-14.043Q8.87695-14.2676 8.4082-14.2676Q7.5-14.2676 7.17773-13.3789L2.59766-1.16211Q2.49023-0.859375 2.49023-0.634766Q2.49023-0.263672 2.70996-0.0537109Q2.92969 0.15625 3.31055 0.15625ZM6.00586-5.51758L8.37891-12.0898L8.42773-12.0898L10.8008-5.51758Z"/>
  </g>
  <line style="fill:none;stroke:#00AEEF;stroke-width:0.5;opacity:1.0;" x1="793.197" x2="793.197" y1="1919" y2="1933"/>
  <text style="stroke:none;fill:black;font-family:sans-serif;font-size:13;font-weight:bold;" transform="matrix(1 0 0 1 776 1953)">Margins</text>
  <text style="stroke:none;fill:black;font-family:sans-serif;font-size:13;" transform="matrix(1 0 0 1 776 1971)">Leading and trailing margins on the left and right side of each symbol</text>
  <text style="stroke:none;fill:black;font-family:sans-serif;font-size:13;" transform="matrix(1 0 0 1 776 1989)">can be adjusted by modifying the x-location of the margin guidelines.</text>
  <text style="stroke:none;fill:black;font-family:sans-serif;font-size:13;" transform="matrix(1 0 0 1 776 2007)">Modifications are automatically applied proportionally to all</text>
  <text style="stroke:none;fill:black;font-family:sans-serif;font-size:13;" transform="matrix(1 0 0 1 776 2025)">scales and weights.</text>
  <g transform="matrix(1 0 0 1 1289 1933)">
   <path d="M2.8418 1.86523L4.54102 3.57422Q5.18555 4.22852 5.90332 4.17969Q6.62109 4.13086 7.31445 3.35938L18.0078-8.42773L17.041-9.4043L6.42578 2.27539Q6.16211 2.57812 5.89355 2.61719Q5.625 2.65625 5.27344 2.30469L4.10156 1.14258Q3.75 0.791016 3.79395 0.522461Q3.83789 0.253906 4.14062-0.0195312L15.6152-10.8203L14.6387-11.7871L3.04688-0.898438Q2.30469-0.214844 2.25098 0.498047Q2.19727 1.21094 2.8418 1.86523ZM9.25781-16.3281Q8.94531-16.0254 8.90625-15.6348Q8.86719-15.2441 9.04297-14.9512Q9.21875-14.6777 9.55566-14.541Q9.89258-14.4043 10.3809-14.5215Q11.4746-14.7754 12.5977-14.7314Q13.7207-14.6875 14.7949-13.9844L14.209-12.5293Q13.9551-11.9043 14.0674-11.4404Q14.1797-10.9766 14.5801-10.5664L16.875-8.25195Q17.2363-7.88086 17.5781-7.82227Q17.9199-7.76367 18.3398-7.8418L19.4043-8.03711L20.0684-7.36328L20.0293-6.80664Q20-6.43555 20.1221-6.12305Q20.2441-5.81055 20.6055-5.44922L21.3672-4.70703Q21.7285-4.3457 22.1533-4.33105Q22.5781-4.31641 22.9297-4.66797L25.8398-7.58789Q26.1914-7.93945 26.1816-8.35449Q26.1719-8.76953 25.8105-9.13086L25.0391-9.89258Q24.6875-10.2539 24.3799-10.3857Q24.0723-10.5176 23.7109-10.4883L23.1348-10.4395L22.4902-11.0742L22.7344-12.1973Q22.832-12.6172 22.6953-12.9834Q22.5586-13.3496 22.1191-13.7891L19.9219-15.9766Q18.6719-17.2168 17.2607-17.8369Q15.8496-18.457 14.4189-18.4814Q12.9883-18.5059 11.665-17.959Q10.3418-17.4121 9.25781-16.3281ZM10.752-15.957Q11.6602-16.6211 12.7002-16.9043Q13.7402-17.1875 14.8047-17.085Q15.8691-16.9824 16.8701-16.5137Q17.8711-16.0449 18.7012-15.2051L21.1328-12.793Q21.3086-12.6172 21.3525-12.4512Q21.3965-12.2852 21.3379-12.0312L21.0156-10.5469L22.5195-9.0625L23.5059-9.12109Q23.6914-9.13086 23.7891-9.09668Q23.8867-9.0625 24.0332-8.91602L24.6094-8.33984L22.168-5.89844L21.5918-6.47461Q21.4453-6.62109 21.4062-6.71875Q21.3672-6.81641 21.377-7.01172L21.4453-7.98828L19.9512-9.47266L18.4277-9.21875Q18.1836-9.16992 18.042-9.2041Q17.9004-9.23828 17.7148-9.41406L15.7129-11.416Q15.5176-11.5918 15.4932-11.7529Q15.4688-11.9141 15.5859-12.1875L16.4648-14.2773Q15.293-15.3711 13.8281-15.791Q12.3633-16.2109 10.8398-15.7617Q10.7227-15.7324 10.6885-15.8057Q10.6543-15.8789 10.752-15.957Z"/>
  </g>
  <text style="stroke:none;fill:black;font-family:sans-serif;font-size:13;font-weight:bold;" transform="matrix(1 0 0 1 1289 1953)">Exporting</text>
  <text style="stroke:none;fill:black;font-family:sans-serif;font-size:13;" transform="matrix(1 0 0 1 1289 1971)">Symbols should be outlined when exporting to ensure the</text>
  <text style="stroke:none;fill:black;font-family:sans-serif;font-size:13;" transform="matrix(1 0 0 1 1289 1989)">design is preserved when submitting to Xcode.</text>
  <text id="template-version" style="stroke:none;fill:black;font-family:sans-serif;font-size:13;text-anchor:end;" transform="matrix(1 0 0 1 3036 1933)">Template v.2.0</text>
  <text style="stroke:none;fill:black;font-family:sans-serif;font-size:13;text-anchor:end;" transform="matrix(1 0 0 1 3036 1951)">Requires Xcode 12 or greater</text>
  <text id="descriptive-name" style="stroke:none;fill:black;font-family:sans-serif;font-size:13;text-anchor:end;" transform="matrix(1 0 0 1 3036 1969)">Generated from tv.fill</text>
  <text style="stroke:none;fill:black;font-family:sans-serif;font-size:13;text-anchor:end;" transform="matrix(1 0 0 1 3036 1987)">Typeset at 100 points</text>
  <text style="stroke:none;fill:black;font-family:sans-serif;font-size:13;" transform="matrix(1 0 0 1 263 726)">Small</text>
  <text style="stroke:none;fill:black;font-family:sans-serif;font-size:13;" transform="matrix(1 0 0 1 263 1156)">Medium</text>
  <text style="stroke:none;fill:black;font-family:sans-serif;font-size:13;" transform="matrix(1 0 0 1 263 1586)">Large</text>
 </g>
 <g id="Guides">
  <g id="H-reference" style="fill:#27AAE1;stroke:none;" transform="matrix(1 0 0 1 339 696)">
   <path d="M0.993347 0L3.6377 0L29.3282-67.1326L30.0301-67.1326L30.0301-70.459L28.1227-70.459ZM11.6882-24.4797L46.9818-24.4797L46.2311-26.7288L12.4382-26.7288ZM55.1193 0L57.7637 0L30.6381-70.459L29.4327-70.459L29.4327-67.1326Z"/>
  </g>
  <line id="Baseline-S" style="fill:none;stroke:#27AAE1;opacity:1;stroke-width:0.5;" x1="263" x2="3036" y1="696" y2="696"/>
  <line id="Capline-S" style="fill:none;stroke:#27AAE1;opacity:1;stroke-width:0.5;" x1="263" x2="3036" y1="625.541" y2="625.541"/>
  <g id="H-reference" style="fill:#27AAE1;stroke:none;" transform="matrix(1 0 0 1 339 1126)">
   <path d="M0.993347 0L3.6377 0L29.3282-67.1326L30.0301-67.1326L30.0301-70.459L28.1227-70.459ZM11.6882-24.4797L46.9818-24.4797L46.2311-26.7288L12.4382-26.7288ZM55.1193 0L57.7637 0L30.6381-70.459L29.4327-70.459L29.4327-67.1326Z"/>
  </g>
  <line id="Baseline-M" style="fill:none;stroke:#27AAE1;opacity:1;stroke-width:0.5;" x1="263" x2="3036" y1="1126" y2="1126"/>
  <line id="Capline-M" style="fill:none;stroke:#27AAE1;opacity:1;stroke-width:0.5;" x1="263" x2="3036" y1="1055.54" y2="1055.54"/>
  <g id="H-reference" style="fill:#27AAE1;stroke:none;" transform="matrix(1 0 0 1 339 1556)">
   <path d="M0.993347 0L3.6377 0L29.3282-67.1326L30.0301-67.1326L30.0301-70.459L28.1227-70.459ZM11.6882-24.4797L46.9818-24.4797L46.2311-26.7288L12.4382-26.7288ZM55.1193 0L57.7637 0L30.6381-70.459L29.4327-70.459L29.4327-67.1326Z"/>
  </g>
  <line id="Baseline-L" style="fill:none;stroke:#27AAE1;opacity:1;stroke-width:0.5;" x1="263" x2="3036" y1="1556" y2="1556"/>
  <line id="Capline-L" style="fill:none;stroke:#27AAE1;opacity:1;stroke-width:0.5;" x1="263" x2="3036" y1="1485.54" y2="1485.54"/>
  <line id="left-margin" style="fill:none;stroke:#00AEEF;stroke-width:0.5;opacity:1.0;" x1="1376.36" x2="1376.36" y1="1030.79" y2="1150.12"/>
  <line id="right-margin" style="fill:none;stroke:#00AEEF;stroke-width:0.5;opacity:1.0;" x1="1523.33" x2="1523.33" y1="1030.79" y2="1150.12"/>
 </g>
 <g id="Symbols">
  <g id="Black-L" transform="matrix(1 0 0 1 2832.44 1556)">
   <path d="M37.5525 13.1594L164.36 13.1594Q174.656 13.1594 180.242 7.57494Q185.829 1.99049 185.829-8.3092L185.829-82.2912Q185.829-92.6493 180.242-98.2149Q174.656-103.781 164.36-103.781L37.5525-103.781Q27.3153-103.781 21.6996-98.2149Q16.084-92.6493 16.084-82.2912L16.084-8.3092Q16.084 1.99049 21.6996 7.57494Q27.3153 13.1594 37.5525 13.1594ZM66.8616 37.648L135.051 37.648Q138.373 37.648 140.657 35.267Q142.94 32.886 142.94 29.8197Q142.94 26.7105 140.657 24.34Q138.373 21.9694 135.051 21.9694L66.8616 21.9694Q63.5396 21.9694 61.2561 24.34Q58.9725 26.7105 58.9725 29.8197Q58.9725 32.886 61.2561 35.267Q63.5396 37.648 66.8616 37.648Z"/>
  </g>
  <g id="Heavy-L" transform="matrix(1 0 0 1 2537.31 1556)">
   <path d="M36.2041 12.0461L162.553 12.0461Q172.275 12.0461 177.474 6.8703Q182.673 1.6945 182.673-8.07408L182.673-81.6624Q182.673-91.4756 177.474-96.6442Q172.275-101.813 162.553-101.813L36.2041-101.813Q26.5261-101.813 21.305-96.6442Q16.084-91.4756 16.084-81.6624L16.084-8.07408Q16.084 1.6945 21.305 6.8703Q26.5261 12.0461 36.2041 12.0461ZM65.903 35.647L132.854 35.647Q135.862 35.647 137.933 33.4974Q140.003 31.3478 140.003 28.5534Q140.003 25.693 137.933 23.5586Q135.862 21.4241 132.854 21.4241L65.903 21.4241Q62.8943 21.4241 60.8239 23.5586Q58.7536 25.693 58.7536 28.5534Q58.7536 31.3478 60.8239 33.4974Q62.8943 35.647 65.903 35.647Z"/>
  </g>
  <g id="Bold-L" transform="matrix(1 0 0 1 2242.61 1556)">
   <path d="M34.5216 10.7526L160.212 10.7526Q169.205 10.7526 173.928 6.07272Q178.65 1.39284 178.65-7.68529L178.65-80.8788Q178.65-89.9861 173.928-94.6703Q169.205-99.3545 160.212-99.3545L34.5216-99.3545Q25.5576-99.3545 20.8208-94.6703Q16.084-89.9861 16.084-80.8788L16.084-7.68529Q16.084 1.39284 20.8208 6.07272Q25.5576 10.7526 34.5216 10.7526ZM64.6673 33.0981L130.066 33.0981Q132.668 33.0981 134.459 31.2516Q136.249 29.405 136.249 26.971Q136.249 24.4477 134.459 22.6202Q132.668 20.7927 130.066 20.7927L64.6673 20.7927Q62.0653 20.7927 60.2749 22.6202Q58.4845 24.4477 58.4845 26.971Q58.4845 29.405 60.2749 31.2516Q62.0653 33.0981 64.6673 33.0981Z"/>
  </g>
  <g id="Semibold-L" transform="matrix(1 0 0 1 1947.29 1556)">
   <path d="M33.3618 9.86086L158.599 9.86086Q167.089 9.86086 171.483 5.52287Q175.876 1.18488 175.876-7.41726L175.876-80.3385Q175.876-88.9592 171.483-93.3095Q167.089-97.6598 158.599-97.6598L33.3618-97.6598Q24.8899-97.6598 20.487-93.3095Q16.084-88.9592 16.084-80.3385L16.084-7.41726Q16.084 1.18488 20.487 5.52287Q24.8899 9.86086 33.3618 9.86086ZM63.8155 31.341L128.145 31.341Q130.467 31.341 132.064 29.7033Q133.661 28.0656 133.661 25.8801Q133.661 23.5892 132.064 21.9733Q130.467 20.3574 128.145 20.3574L63.8155 20.3574Q61.4938 20.3574 59.8964 21.9733Q58.299 23.5892 58.299 25.8801Q58.299 28.0656 59.8964 29.7033Q61.4938 31.341 63.8155 31.341Z"/>
  </g>
  <g id="Medium-L" transform="matrix(1 0 0 1 1651.63 1556)">
   <path d="M32.4823 9.1847L157.375 9.1847Q165.484 9.1847 169.629 5.10595Q173.774 1.02719 173.774-7.21403L173.774-79.9289Q173.774-88.1806 169.629-92.2777Q165.484-96.3749 157.375-96.3749L32.4823-96.3749Q24.3837-96.3749 20.2338-92.2777Q16.084-88.1806 16.084-79.9289L16.084-7.21403Q16.084 1.02719 20.2338 5.10595Q24.3837 9.1847 32.4823 9.1847ZM63.1696 30.0086L126.688 30.0086Q128.797 30.0086 130.248 28.5293Q131.699 27.05 131.699 25.0529Q131.699 22.9383 130.248 21.4828Q128.797 20.0273 126.688 20.0273L63.1696 20.0273Q61.0605 20.0273 59.6095 21.4828Q58.1584 22.9383 58.1584 25.0529Q58.1584 27.05 59.6095 28.5293Q61.0605 30.0086 63.1696 30.0086Z"/>
  </g>
  <g id="Regular-L" transform="matrix(1 0 0 1 1356.29 1556)">
   <path d="M31.3352 8.30276L155.779 8.30276Q163.391 8.30276 167.211 4.56214Q171.031 0.821519 171.031-6.94894L171.031-79.3945Q171.031-87.165 167.211-90.9319Q163.391-94.6988 155.779-94.6988L31.3352-94.6988Q23.7233-94.6988 19.9036-90.9319Q16.084-87.165 16.084-79.3945L16.084-6.94894Q16.084 0.821519 19.9036 4.56214Q23.7233 8.30276 31.3352 8.30276ZM62.3271 28.2708L124.788 28.2708Q126.619 28.2708 127.879 26.9981Q129.14 25.7253 129.14 23.974Q129.14 22.0892 127.879 20.843Q126.619 19.5968 124.788 19.5968L62.3271 19.5968Q60.4953 19.5968 59.2351 20.843Q57.975 22.0892 57.975 23.974Q57.975 25.7253 59.2351 26.9981Q60.4953 28.2708 62.3271 28.2708Z"/>
  </g>
  <g id="Light-L" transform="matrix(1 0 0 1 1061.33 1556)">
   <path d="M30.0946 7.95934L153.508 7.95934Q160.49 7.95934 164.005 4.49544Q167.519 1.03155 167.519-6.05207L167.519-78.8219Q167.519-85.9055 164.005-89.386Q160.49-92.8666 153.508-92.8666L30.0946-92.8666Q23.1125-92.8666 19.5982-89.386Q16.084-85.9055 16.084-78.8219L16.084-6.05207Q16.084 1.03155 19.5982 4.49544Q23.1125 7.95934 30.0946 7.95934ZM61.1628 26.057L122.44 26.057Q123.871 26.057 124.835 25.0991Q125.8 24.1413 125.8 22.7908Q125.8 21.3257 124.835 20.3849Q123.871 19.4441 122.44 19.4441L61.1628 19.4441Q59.7318 19.4441 58.7675 20.3849Q57.8031 21.3257 57.8031 22.7908Q57.8031 24.1413 58.7675 25.0991Q59.7318 26.057 61.1628 26.057Z"/>
  </g>
  <g id="Thin-L" transform="matrix(1 0 0 1 766.943 1556)">
   <path d="M28.4538 7.50513L150.504 7.50513Q156.654 7.50513 159.764 4.40723Q162.874 1.30933 162.874-4.86588L162.874-78.0644Q162.874-84.2396 159.764-87.3415Q156.654-90.4433 150.504-90.4433L28.4538-90.4433Q22.3046-90.4433 19.1943-87.3415Q16.084-84.2396 16.084-78.0644L16.084-4.86588Q16.084 1.30933 19.1943 4.40723Q22.3046 7.50513 28.4538 7.50513ZM59.6229 23.129L119.335 23.129Q120.236 23.129 120.809 22.5877Q121.382 22.0463 121.382 21.2259Q121.382 20.316 120.809 19.7791Q120.236 19.2423 119.335 19.2423L59.6229 19.2423Q58.722 19.2423 58.1489 19.7791Q57.5758 20.316 57.5758 21.2259Q57.5758 22.0463 58.1489 22.5877Q58.722 23.129 59.6229 23.129Z"/>
  </g>
  <g id="Ultralight-L" transform="matrix(1 0 0 1 471.421 1556)">
   <path d="M27.6134 7.27249L148.966 7.27249Q154.688 7.27249 157.592 4.36205Q160.495 1.45161 160.495-4.25832L160.495-77.6765Q160.495-83.3864 157.592-86.2943Q154.688-89.2021 148.966-89.2021L27.6134-89.2021Q21.8908-89.2021 18.9874-86.2943Q16.084-83.3864 16.084-77.6765L16.084-4.25832Q16.084 1.45161 18.9874 4.36205Q21.8908 7.27249 27.6134 7.27249ZM58.8342 21.6294L117.745 21.6294Q118.374 21.6294 118.747 21.3013Q119.12 20.9732 119.12 20.4243Q119.12 19.7988 118.747 19.4688Q118.374 19.1389 117.745 19.1389L58.8342 19.1389Q58.2048 19.1389 57.8321 19.4688Q57.4593 19.7988 57.4593 20.4243Q57.4593 20.9732 57.8321 21.3013Q58.2048 21.6294 58.8342 21.6294Z"/>
  </g>
  <g id="Black-M" transform="matrix(1 0 0 1 2854.07 1126)">
   <path d="M30.0844 3.16964L128.582 3.16964Q136.966 3.16964 141.586-1.47056Q146.206-6.11076 146.206-14.4538L146.206-72.1529Q146.206-80.553 141.586-85.1674Q136.966-89.7818 128.582-89.7818L30.0844-89.7818Q21.7578-89.7818 17.1094-85.1674Q12.4609-80.553 12.4609-72.1529L12.4609-14.4538Q12.4609-6.11076 17.1094-1.47056Q21.7578 3.16964 30.0844 3.16964ZM52.4666 22.6515L106.2 22.6515Q108.989 22.6515 110.901 20.6507Q112.813 18.6498 112.813 16.0948Q112.813 13.5291 110.901 11.531Q108.989 9.5329 106.2 9.5329L52.4666 9.5329Q49.678 9.5329 47.7657 11.531Q45.8534 13.5291 45.8534 16.0948Q45.8534 18.6498 47.7657 20.6507Q49.678 22.6515 52.4666 22.6515Z"/>
  </g>
  <g id="Heavy-M" transform="matrix(1 0 0 1 2558.74 1126)">
   <path d="M28.8806 2.11303L127.025 2.11303Q134.906 2.11303 139.175-2.15323Q143.445-6.4195 143.445-14.3067L143.445-71.5911Q143.445-79.5219 139.175-83.7745Q134.906-88.0272 127.025-88.0272L28.8806-88.0272Q21.0427-88.0272 16.7518-83.7745Q12.4609-79.5219 12.4609-71.5911L12.4609-14.3067Q12.4609-6.4195 16.7518-2.15323Q21.0427 2.11303 28.8806 2.11303ZM51.6369 20.8996L104.269 20.8996Q106.788 20.8996 108.519 19.0959Q110.25 17.2923 110.25 14.9661Q110.25 12.6048 108.519 10.8094Q106.788 9.01388 104.269 9.01388L51.6369 9.01388Q49.1176 9.01388 47.3864 10.8094Q45.6552 12.6048 45.6552 14.9661Q45.6552 17.2923 47.3864 19.0959Q49.1176 20.8996 51.6369 20.8996Z"/>
  </g>
  <g id="Bold-M" transform="matrix(1 0 0 1 2263.57 1126)">
   <path d="M27.534 0.931056L125.283 0.931056Q132.603 0.931056 136.479-2.9169Q140.356-6.76486 140.356-14.1421L140.356-70.9626Q140.356-78.3684 136.479-82.2164Q132.603-86.0644 125.283-86.0644L27.534-86.0644Q20.2427-86.0644 16.3518-82.2164Q12.4609-78.3684 12.4609-70.9626L12.4609-14.1421Q12.4609-6.76486 16.3518-2.9169Q20.2427 0.931056 27.534 0.931056ZM50.7087 18.9399L102.108 18.9399Q104.326 18.9399 105.855 17.3568Q107.383 15.7736 107.383 13.7035Q107.383 11.5709 105.855 10.0021Q104.326 8.43329 102.108 8.43329L50.7087 8.43329Q48.4907 8.43329 46.9621 10.0021Q45.4335 11.5709 45.4335 13.7035Q45.4335 15.7736 46.9621 17.3568Q48.4907 18.9399 50.7087 18.9399Z"/>
  </g>
  <g id="Semibold-M" transform="matrix(1 0 0 1 1967.92 1126)">
   <path d="M26.6057 0.11621L124.082 0.11621Q131.014 0.11621 134.62-3.44337Q138.226-7.00294 138.226-14.0287L138.226-70.5294Q138.226-77.5733 134.62-81.1422Q131.014-84.7112 124.082-84.7112L26.6057-84.7112Q19.6912-84.7112 16.0761-81.1422Q12.4609-77.5733 12.4609-70.5294L12.4609-14.0287Q12.4609-7.00294 16.0761-3.44337Q19.6912 0.11621 26.6057 0.11621ZM50.0689 17.5889L100.618 17.5889Q102.629 17.5889 104.018 16.1578Q105.407 14.7267 105.407 12.8331Q105.407 10.8582 104.018 9.4456Q102.629 8.03303 100.618 8.03303L50.0689 8.03303Q48.0585 8.03303 46.6695 9.4456Q45.2806 10.8582 45.2806 12.8331Q45.2806 14.7267 46.6695 16.1578Q48.0585 17.5889 50.0689 17.5889Z"/>
  </g>
  <g id="Medium-M" transform="matrix(1 0 0 1 1672.02 1126)">
   <path d="M25.9018-0.50164L123.171-0.50164Q129.81-0.50164 133.211-3.84256Q136.612-7.18347 136.612-13.9426L136.612-70.2009Q136.612-76.9703 133.211-80.3278Q129.81-83.6852 123.171-83.6852L25.9018-83.6852Q19.273-83.6852 15.867-80.3278Q12.4609-76.9703 12.4609-70.2009L12.4609-13.9426Q12.4609-7.18347 15.867-3.84256Q19.273-0.50164 25.9018-0.50164ZM49.5837 16.5645L99.489 16.5645Q101.342 16.5645 102.625 15.2487Q103.908 13.9329 103.908 12.1731Q103.908 10.3177 102.625 9.02363Q101.342 7.72954 99.489 7.72954L49.5837 7.72954Q47.7308 7.72954 46.4477 9.02363Q45.1647 10.3177 45.1647 12.1731Q45.1647 13.9329 46.4477 15.2487Q47.7308 16.5645 49.5837 16.5645Z"/>
  </g>
  <g id="Regular-M" transform="matrix(1 0 0 1 1376.36 1126)">
   <path d="M24.9837-1.30753L121.983-1.30753Q128.239-1.30753 131.373-4.36324Q134.506-7.41895 134.506-13.8304L134.506-69.7724Q134.506-76.1839 131.373-79.2654Q128.239-82.3469 121.983-82.3469L24.9837-82.3469Q18.7275-82.3469 15.5942-79.2654Q12.4609-76.1839 12.4609-69.7724L12.4609-13.8304Q12.4609-7.41895 15.5942-4.36324Q18.7275-1.30753 24.9837-1.30753ZM48.9509 15.2284L98.0159 15.2284Q99.6634 15.2284 100.808 14.0629Q101.953 12.8974 101.953 11.3122Q101.953 9.61278 100.808 8.47323Q99.6634 7.33369 98.0159 7.33369L48.9509 7.33369Q47.3033 7.33369 46.1584 8.47323Q45.0136 9.61278 45.0136 11.3122Q45.0136 12.8974 46.1584 14.0629Q47.3033 15.2284 48.9509 15.2284Z"/>
  </g>
  <g id="Light-M" transform="matrix(1 0 0 1 1081.22 1126)">
   <path d="M23.8714-1.61543L119.947-1.61543Q125.638-1.61543 128.498-4.42304Q131.357-7.23064 131.357-13.0264L131.357-69.2589Q131.357-75.0546 128.498-77.8794Q125.638-80.7043 119.947-80.7043L23.8714-80.7043Q18.1799-80.7043 15.3204-77.8794Q12.4609-75.0546 12.4609-69.2589L12.4609-13.0264Q12.4609-7.23064 15.3204-4.42304Q18.1799-1.61543 23.8714-1.61543ZM47.907 13.2436L95.9112 13.2436Q97.1994 13.2436 98.0791 12.3604Q98.9587 11.4773 98.9587 10.2514Q98.9587 8.92828 98.0791 8.06256Q97.1994 7.19684 95.9112 7.19684L47.907 7.19684Q46.6188 7.19684 45.7391 8.06256Q44.8595 8.92828 44.8595 10.2514Q44.8595 11.4773 45.7391 12.3604Q46.6188 13.2436 47.907 13.2436Z"/>
  </g>
  <g id="Thin-M" transform="matrix(1 0 0 1 786.595 1126)">
   <path d="M22.4003-2.02265L117.254-2.02265Q122.198-2.02265 124.696-4.50212Q127.193-6.9816 127.193-11.9629L127.193-68.5798Q127.193-73.5611 124.696-76.0464Q122.198-78.5317 117.254-78.5317L22.4003-78.5317Q17.4556-78.5317 14.9582-76.0464Q12.4609-73.5611 12.4609-68.5798L12.4609-11.9629Q12.4609-6.9816 14.9582-4.50212Q17.4556-2.02265 22.4003-2.02265ZM46.5264 10.6185L93.1276 10.6185Q93.9405 10.6185 94.4694 10.1087Q94.9983 9.59896 94.9983 8.84835Q94.9983 8.02298 94.4694 7.51942Q93.9405 7.01586 93.1276 7.01586L46.5264 7.01586Q45.7135 7.01586 45.1846 7.51942Q44.6557 8.02298 44.6557 8.84835Q44.6557 9.59896 45.1846 10.1087Q45.7135 10.6185 46.5264 10.6185Z"/>
  </g>
  <g id="Ultralight-M" transform="matrix(1 0 0 1 490.95 1126)">
   <path d="M21.6468-2.23122L115.874-2.23122Q120.437-2.23122 122.748-4.54263Q125.06-6.85404 125.06-11.4182L125.06-68.232Q125.06-72.7961 122.748-75.1075Q120.437-77.4189 115.874-77.4189L21.6468-77.4189Q17.0846-77.4189 14.7727-75.1075Q12.4609-72.7961 12.4609-68.232L12.4609-11.4182Q12.4609-6.85404 14.7727-4.54263Q17.0846-2.23122 21.6468-2.23122ZM45.8193 9.274L91.7019 9.274Q92.2713 9.274 92.6206 8.95545Q92.9698 8.63691 92.9698 8.12973Q92.9698 7.55928 92.6206 7.24122Q92.2713 6.92316 91.7019 6.92316L45.8193 6.92316Q45.2498 6.92316 44.9006 7.24122Q44.5513 7.55928 44.5513 8.12973Q44.5513 8.63691 44.9006 8.95545Q45.2498 9.274 45.8193 9.274Z"/>
  </g>
  <g id="Black-S" transform="matrix(1 0 0 1 2870.9 696)">
   <path d="M23.877-4.83398L101.123-4.83398Q107.812-4.83398 111.523-8.56934Q115.234-12.3047 115.234-18.9453L115.234-64.3066Q115.234-70.9961 111.523-74.707Q107.812-78.418 101.123-78.418L23.877-78.418Q17.2363-78.418 13.501-74.707Q9.76562-70.9961 9.76562-64.3066L9.76562-18.9453Q9.76562-12.3047 13.501-8.56934Q17.2363-4.83398 23.877-4.83398ZM41.3086 10.5469L83.6914 10.5469Q85.9375 10.5469 87.4756 8.93555Q89.0137 7.32422 89.0137 5.27344Q89.0137 3.22266 87.4756 1.61133Q85.9375 0 83.6914 0L41.3086 0Q39.0625 0 37.5244 1.61133Q35.9863 3.22266 35.9863 5.27344Q35.9863 7.32422 37.5244 8.93555Q39.0625 10.5469 41.3086 10.5469Z"/>
  </g>
  <g id="Heavy-S" transform="matrix(1 0 0 1 2575.17 696)">
   <path d="M22.9896-5.69832L100.051-5.69832Q106.383-5.69832 109.829-9.14556Q113.275-12.5928 113.275-18.9223L113.275-63.8918Q113.275-70.2585 109.829-73.6929Q106.383-77.1272 100.051-77.1272L22.9896-77.1272Q16.6947-77.1272 13.2302-73.6929Q9.76562-70.2585 9.76562-63.8918L9.76562-18.9223Q9.76562-12.5928 13.2302-9.14556Q16.6947-5.69832 22.9896-5.69832ZM40.7324 9.30223L82.3085 9.30223Q84.3702 9.30223 85.7873 7.82344Q87.2043 6.34464 87.2043 4.44368Q87.2043 2.51966 85.7873 1.04663Q84.3702-0.426405 82.3085-0.426405L40.7324-0.426405Q38.6707-0.426405 37.2536 1.04663Q35.8365 2.51966 35.8365 4.44368Q35.8365 6.34464 37.2536 7.82344Q38.6707 9.30223 40.7324 9.30223Z"/>
  </g>
  <g id="Bold-S" transform="matrix(1 0 0 1 2279.55 696)">
   <path d="M21.9971-6.66504L98.8525-6.66504Q104.785-6.66504 107.935-9.79004Q111.084-12.915 111.084-18.8965L111.084-63.4277Q111.084-69.4336 107.935-72.5586Q104.785-75.6836 98.8525-75.6836L21.9971-75.6836Q16.0889-75.6836 12.9272-72.5586Q9.76562-69.4336 9.76562-63.4277L9.76562-18.8965Q9.76562-12.915 12.9272-9.79004Q16.0889-6.66504 21.9971-6.66504ZM40.0879 7.91016L80.7617 7.91016Q82.6172 7.91016 83.8989 6.57959Q85.1807 5.24902 85.1807 3.51562Q85.1807 1.7334 83.8989 0.415039Q82.6172-0.90332 80.7617-0.90332L40.0879-0.90332Q38.2324-0.90332 36.9507 0.415039Q35.6689 1.7334 35.6689 3.51562Q35.6689 5.24902 36.9507 6.57959Q38.2324 7.91016 40.0879 7.91016Z"/>
  </g>
  <g id="Semibold-S" transform="matrix(1 0 0 1 1983.6 696)">
   <path d="M21.3128-7.33154L98.0261-7.33154Q103.683-7.33154 106.628-10.2344Q109.573-13.1372 109.573-18.8787L109.573-63.1078Q109.573-68.8648 106.628-71.7766Q103.683-74.6883 98.0261-74.6883L21.3128-74.6883Q15.6712-74.6883 12.7184-71.7766Q9.76562-68.8648 9.76562-63.1078L9.76562-18.8787Q9.76562-13.1372 12.7184-10.2344Q15.6712-7.33154 21.3128-7.33154ZM39.6436 6.95039L79.6953 6.95039Q81.4086 6.95039 82.597 5.72202Q83.7854 4.49365 83.7854 2.87578Q83.7854 1.19131 82.597-0.0204102Q81.4086-1.23213 79.6953-1.23213L39.6436-1.23213Q37.9303-1.23213 36.7418-0.0204102Q35.5534 1.19131 35.5534 2.87578Q35.5534 4.49365 36.7418 5.72202Q37.9303 6.95039 39.6436 6.95039Z"/>
  </g>
  <g id="Medium-S" transform="matrix(1 0 0 1 1687.46 696)">
   <path d="M20.7939-7.83691L97.3994-7.83691Q102.848-7.83691 105.638-10.5713Q108.428-13.3057 108.428-18.8652L108.428-62.8652Q108.428-68.4336 105.638-71.1836Q102.848-73.9336 97.3994-73.9336L20.7939-73.9336Q15.3545-73.9336 12.5601-71.1836Q9.76562-68.4336 9.76562-62.8652L9.76562-18.8652Q9.76562-13.3057 12.5601-10.5713Q15.3545-7.83691 20.7939-7.83691ZM39.3066 6.22266L78.8867 6.22266Q80.4922 6.22266 81.6099 5.07178Q82.7275 3.9209 82.7275 2.39062Q82.7275 0.780273 81.6099-0.350586Q80.4922-1.48145 78.8867-1.48145L39.3066-1.48145Q37.7012-1.48145 36.5835-0.350586Q35.4658 0.780273 35.4658 2.39062Q35.4658 3.9209 36.5835 5.07178Q37.7012 6.22266 39.3066 6.22266Z"/>
  </g>
  <g id="Regular-S" transform="matrix(1 0 0 1 1391.49 696)">
   <path d="M20.1172-8.49609L96.582-8.49609Q101.758-8.49609 104.346-11.0107Q106.934-13.5254 106.934-18.8477L106.934-62.5488Q106.934-67.8711 104.346-70.4102Q101.758-72.9492 96.582-72.9492L20.1172-72.9492Q14.9414-72.9492 12.3535-70.4102Q9.76562-67.8711 9.76562-62.5488L9.76562-18.8477Q9.76562-13.5254 12.3535-11.0107Q14.9414-8.49609 20.1172-8.49609ZM38.8672 5.27344L77.832 5.27344Q79.2969 5.27344 80.3223 4.22363Q81.3477 3.17383 81.3477 1.75781Q81.3477 0.244141 80.3223-0.78125Q79.2969-1.80664 77.832-1.80664L38.8672-1.80664Q37.4023-1.80664 36.377-0.78125Q35.3516 0.244141 35.3516 1.75781Q35.3516 3.17383 36.377 4.22363Q37.4023 5.27344 38.8672 5.27344Z"/>
  </g>
  <g id="Light-S" transform="matrix(1 0 0 1 1096.18 696)">
   <path d="M19.1332-8.76846L94.7807-8.76846Q99.457-8.76846 101.803-11.0636Q104.148-13.3588 104.148-18.1363L104.148-62.0946Q104.148-66.8722 101.803-69.1841Q99.457-71.4961 94.7807-71.4961L19.1332-71.4961Q14.4569-71.4961 12.1113-69.1841Q9.76562-66.8722 9.76562-62.0946L9.76562-18.1363Q9.76562-13.3588 12.1113-11.0636Q14.4569-8.76846 19.1332-8.76846ZM37.9438 3.51766L75.9702 3.51766Q77.1172 3.51766 77.9079 2.71759Q78.6987 1.91752 78.6987 0.819397Q78.6987-0.361379 77.9079-1.14454Q77.1172-1.92769 75.9702-1.92769L37.9438-1.92769Q36.7968-1.92769 36.006-1.14454Q35.2153-0.361379 35.2153 0.819397Q35.2153 1.91752 36.006 2.71759Q36.7968 3.51766 37.9438 3.51766Z"/>
  </g>
  <g id="Thin-S" transform="matrix(1 0 0 1 801.307 696)">
   <path d="M17.8319-9.12869L92.3984-9.12869Q96.4141-9.12869 98.4394-11.1336Q100.465-13.1385 100.465-17.1956L100.465-61.4939Q100.465-65.551 98.4394-67.5626Q96.4141-69.5742 92.3984-69.5742L17.8319-69.5742Q13.8162-69.5742 11.7909-67.5626Q9.76562-65.551 9.76562-61.4939L9.76562-17.1956Q9.76562-13.1385 11.7909-11.1336Q13.8162-9.12869 17.8319-9.12869ZM36.7225 1.1955L73.5078 1.1955Q74.2343 1.1955 74.7148 0.725728Q75.1953 0.255954 75.1953-0.421733Q75.1953-1.16223 74.7148-1.62501Q74.2343-2.0878 73.5078-2.0878L36.7225-2.0878Q35.996-2.0878 35.5155-1.62501Q35.035-1.16223 35.035-0.421733Q35.035 0.255954 35.5155 0.725728Q35.996 1.1955 36.7225 1.1955Z"/>
  </g>
  <g id="Ultralight-S" transform="matrix(1 0 0 1 505.539 696)">
   <path d="M17.1654-9.3132L91.1781-9.3132Q94.8555-9.3132 96.7167-11.1694Q98.5779-13.0257 98.5779-16.7137L98.5779-61.1862Q98.5779-64.8743 96.7167-66.732Q94.8555-68.5898 91.1781-68.5898L17.1654-68.5898Q13.488-68.5898 11.6268-66.732Q9.76562-64.8743 9.76562-61.1862L9.76562-16.7137Q9.76562-13.0257 11.6268-11.1694Q13.488-9.3132 17.1654-9.3132ZM36.097 0.00610352L72.2466 0.00610352Q72.7577 0.00610352 73.0793-0.294495Q73.4009-0.595093 73.4009-1.05743Q73.4009-1.57242 73.0793-1.87111Q72.7577-2.1698 72.2466-2.1698L36.097-2.1698Q35.5858-2.1698 35.2642-1.87111Q34.9426-1.57242 34.9426-1.05743Q34.9426-0.595093 35.2642-0.294495Q35.5858 0.00610352 36.097 0.00610352Z"/>
  </g>
 </g>
</svg>
